<mxfile host="65bd71144e">
    <diagram id="VteJITER3eXXvVMXJnZ_" name="Page-1">
        <mxGraphModel dx="1002" dy="571" grid="1" gridSize="10" guides="1" tooltips="1" connect="1" arrows="1" fold="1" page="1" pageScale="1" pageWidth="850" pageHeight="1100" math="0" shadow="0">
            <root>
                <mxCell id="0"/>
                <mxCell id="1" parent="0"/>
                <mxCell id="2" value="" style="rounded=0;whiteSpace=wrap;html=1;" vertex="1" parent="1">
                    <mxGeometry x="200" y="160" width="320" height="10" as="geometry"/>
                </mxCell>
                <mxCell id="3" value="Actor" style="shape=umlActor;verticalLabelPosition=bottom;verticalAlign=top;html=1;outlineConnect=0;" vertex="1" parent="1">
                    <mxGeometry x="140" y="135" width="30" height="60" as="geometry"/>
                </mxCell>
                <mxCell id="5" value="" style="endArrow=none;html=1;exitX=0.126;exitY=0.48;exitDx=0;exitDy=0;exitPerimeter=0;" edge="1" parent="1">
                    <mxGeometry width="50" height="50" relative="1" as="geometry">
                        <mxPoint x="250.31999999999994" y="169.99999999999994" as="sourcePoint"/>
                        <mxPoint x="250" y="135.2" as="targetPoint"/>
                    </mxGeometry>
                </mxCell>
                <mxCell id="6" value="index.html" style="text;html=1;align=center;verticalAlign=middle;whiteSpace=wrap;rounded=0;" vertex="1" parent="1">
                    <mxGeometry x="200" y="110" width="60" height="30" as="geometry"/>
                </mxCell>
                <mxCell id="8" value="SPA" style="text;html=1;align=center;verticalAlign=middle;whiteSpace=wrap;rounded=0;" vertex="1" parent="1">
                    <mxGeometry x="560" y="150" width="60" height="30" as="geometry"/>
                </mxCell>
                <mxCell id="10" value="" style="image;html=1;image=img/lib/clip_art/computers/Monitor_128x128.png" vertex="1" parent="1">
                    <mxGeometry x="470" y="55" width="80" height="80" as="geometry"/>
                </mxCell>
                <mxCell id="11" value="download JS/parsen" style="rounded=0;whiteSpace=wrap;html=1;fillColor=#d5e8d4;strokeColor=#82b366;" vertex="1" parent="1">
                    <mxGeometry x="260" y="150" width="240" height="20" as="geometry"/>
                </mxCell>
                <mxCell id="12" value="" style="endArrow=none;html=1;exitX=0.599;exitY=0.32;exitDx=0;exitDy=0;exitPerimeter=0;" edge="1" parent="1">
                    <mxGeometry width="50" height="50" relative="1" as="geometry">
                        <mxPoint x="501.68000000000006" y="163.20000000000005" as="sourcePoint"/>
                        <mxPoint x="500" y="130" as="targetPoint"/>
                    </mxGeometry>
                </mxCell>
                <mxCell id="13" value="" style="image;html=1;image=img/lib/clip_art/computers/Monitor_128x128.png" vertex="1" parent="1">
                    <mxGeometry x="260" y="65.2" width="80" height="80" as="geometry"/>
                </mxCell>
                <mxCell id="14" value="LOADING" style="rounded=0;whiteSpace=wrap;html=1;rotation=-15;" vertex="1" parent="1">
                    <mxGeometry x="270" y="77.7" width="60" height="45" as="geometry"/>
                </mxCell>
                <mxCell id="15" value="2 a 3 seconden" style="text;html=1;align=center;verticalAlign=middle;whiteSpace=wrap;rounded=0;" vertex="1" parent="1">
                    <mxGeometry x="340" y="180" width="110" height="30" as="geometry"/>
                </mxCell>
                <mxCell id="16" value="" style="rounded=0;whiteSpace=wrap;html=1;" vertex="1" parent="1">
                    <mxGeometry x="200" y="375" width="320" height="10" as="geometry"/>
                </mxCell>
                <mxCell id="17" value="Actor" style="shape=umlActor;verticalLabelPosition=bottom;verticalAlign=top;html=1;outlineConnect=0;" vertex="1" parent="1">
                    <mxGeometry x="140" y="350" width="30" height="60" as="geometry"/>
                </mxCell>
                <mxCell id="19" value="index.html" style="text;html=1;align=center;verticalAlign=middle;whiteSpace=wrap;rounded=0;" vertex="1" parent="1">
                    <mxGeometry x="190" y="325" width="60" height="30" as="geometry"/>
                </mxCell>
                <mxCell id="20" value="SSR + SPA" style="text;html=1;align=center;verticalAlign=middle;whiteSpace=wrap;rounded=0;" vertex="1" parent="1">
                    <mxGeometry x="520" y="360" width="130" height="30" as="geometry"/>
                </mxCell>
                <mxCell id="21" value="" style="image;html=1;image=img/lib/clip_art/computers/Monitor_128x128.png" vertex="1" parent="1">
                    <mxGeometry x="240" y="275" width="80" height="80" as="geometry"/>
                </mxCell>
                <mxCell id="22" value="download JS/parsen" style="rounded=0;whiteSpace=wrap;html=1;fillColor=#d5e8d4;strokeColor=#82b366;" vertex="1" parent="1">
                    <mxGeometry x="290" y="365" width="240" height="20" as="geometry"/>
                </mxCell>
                <mxCell id="23" value="" style="endArrow=none;html=1;exitX=0.599;exitY=0.32;exitDx=0;exitDy=0;exitPerimeter=0;" edge="1" parent="1">
                    <mxGeometry width="50" height="50" relative="1" as="geometry">
                        <mxPoint x="531.6800000000001" y="378.20000000000005" as="sourcePoint"/>
                        <mxPoint x="530" y="345" as="targetPoint"/>
                    </mxGeometry>
                </mxCell>
                <mxCell id="26" value="2 a 3 seconden" style="text;html=1;align=center;verticalAlign=middle;whiteSpace=wrap;rounded=0;" vertex="1" parent="1">
                    <mxGeometry x="340" y="395" width="110" height="30" as="geometry"/>
                </mxCell>
                <mxCell id="38" value="" style="endArrow=none;html=1;exitX=0.126;exitY=0.48;exitDx=0;exitDy=0;exitPerimeter=0;" edge="1" parent="1">
                    <mxGeometry width="50" height="50" relative="1" as="geometry">
                        <mxPoint x="280.31999999999994" y="389.99999999999994" as="sourcePoint"/>
                        <mxPoint x="280" y="355.2" as="targetPoint"/>
                    </mxGeometry>
                </mxCell>
                <mxCell id="39" value="" style="image;html=1;image=img/lib/clip_art/general/Star_128x128.png" vertex="1" parent="1">
                    <mxGeometry x="500" y="20" width="80" height="80" as="geometry"/>
                </mxCell>
                <mxCell id="44" value="" style="image;html=1;image=img/lib/clip_art/computers/Monitor_128x128.png" vertex="1" parent="1">
                    <mxGeometry x="470" y="265" width="80" height="80" as="geometry"/>
                </mxCell>
                <mxCell id="45" value="" style="image;html=1;image=img/lib/clip_art/general/Star_128x128.png" vertex="1" parent="1">
                    <mxGeometry x="500" y="230" width="80" height="80" as="geometry"/>
                </mxCell>
                <mxCell id="47" value="download JS/parsen" style="rounded=0;whiteSpace=wrap;html=1;fillColor=#d5e8d4;strokeColor=#82b366;" vertex="1" parent="1">
                    <mxGeometry x="290" y="400" width="70" height="20" as="geometry"/>
                </mxCell>
                <mxCell id="48" value="download JS/parsen" style="rounded=0;whiteSpace=wrap;html=1;fillColor=#d5e8d4;strokeColor=#82b366;" vertex="1" parent="1">
                    <mxGeometry x="360" y="400" width="70" height="20" as="geometry"/>
                </mxCell>
                <mxCell id="49" value="download JS/parsen" style="rounded=0;whiteSpace=wrap;html=1;fillColor=#d5e8d4;strokeColor=#82b366;" vertex="1" parent="1">
                    <mxGeometry x="430" y="400" width="70" height="20" as="geometry"/>
                </mxCell>
            </root>
        </mxGraphModel>
    </diagram>
    <diagram id="2Gjre3N7muIeVU6ygTkS" name="Page-2">
        <mxGraphModel dx="691" dy="394" grid="1" gridSize="10" guides="1" tooltips="1" connect="1" arrows="1" fold="1" page="1" pageScale="1" pageWidth="850" pageHeight="1100" math="0" shadow="0">
            <root>
                <mxCell id="0"/>
                <mxCell id="1" parent="0"/>
                <mxCell id="DHip46Rp8uiSRYNajNQN-2" value="Browser APIs&lt;div&gt;document.createElement()&lt;/div&gt;" style="rounded=1;whiteSpace=wrap;html=1;fillColor=#d5e8d4;strokeColor=#82b366;" vertex="1" parent="1">
                    <mxGeometry x="100" y="120" width="200" height="60" as="geometry"/>
                </mxCell>
                <mxCell id="DHip46Rp8uiSRYNajNQN-3" value="JavaScript" style="rounded=1;whiteSpace=wrap;html=1;fillColor=#e1d5e7;strokeColor=#9673a6;" vertex="1" parent="1">
                    <mxGeometry x="50" y="240" width="120" height="60" as="geometry"/>
                </mxCell>
                <mxCell id="DHip46Rp8uiSRYNajNQN-4" value="" style="shape=flexArrow;endArrow=classic;html=1;" edge="1" parent="1" source="DHip46Rp8uiSRYNajNQN-3" target="DHip46Rp8uiSRYNajNQN-2">
                    <mxGeometry width="50" height="50" relative="1" as="geometry">
                        <mxPoint x="200" y="310" as="sourcePoint"/>
                        <mxPoint x="250" y="260" as="targetPoint"/>
                    </mxGeometry>
                </mxCell>
                <mxCell id="DHip46Rp8uiSRYNajNQN-5" value="WebAssembly" style="rounded=1;whiteSpace=wrap;html=1;fillColor=#f8cecc;strokeColor=#b85450;" vertex="1" parent="1">
                    <mxGeometry x="220" y="240" width="120" height="60" as="geometry"/>
                </mxCell>
                <mxCell id="DHip46Rp8uiSRYNajNQN-6" value="" style="shape=flexArrow;endArrow=classic;html=1;" edge="1" parent="1" source="DHip46Rp8uiSRYNajNQN-5" target="DHip46Rp8uiSRYNajNQN-3">
                    <mxGeometry width="50" height="50" relative="1" as="geometry">
                        <mxPoint x="200" y="310" as="sourcePoint"/>
                        <mxPoint x="250" y="260" as="targetPoint"/>
                    </mxGeometry>
                </mxCell>
            </root>
        </mxGraphModel>
    </diagram>
</mxfile>